<?xml version="1.0" encoding="UTF-8" standalone="no"?>
<svg width="60px" height="60px" viewBox="0 0 60 60" version="1.1" xmlns="http://www.w3.org/2000/svg" xmlns:xlink="http://www.w3.org/1999/xlink" xmlns:sketch="http://www.bohemiancoding.com/sketch/ns">
    <!-- Generator: Sketch 3.4.4 (17249) - http://www.bohemiancoding.com/sketch -->
    <title>iPadtarget</title>
    <desc>Created with Sketch.</desc>
    <defs>
        <path id="path-1" d="M0,0.987 L935.001,0.987 L935.001,2128 L0,2128 L0,0.987 Z"></path>
        <path id="path-3" d="M0,0.987 L935.001,0.987 L935.001,2128 L0,2128 L0,0.987 Z"></path>
        <path id="path-5" d="M0,0.987 L935.001,0.987 L935.001,2128 L0,2128 L0,0.987 Z"></path>
        <path id="path-7" d="M0,0.987 L935.001,0.987 L935.001,2128 L0,2128 L0,0.987 Z"></path>
        <path id="path-9" d="M0,0.987 L935.001,0.987 L935.001,2128 L0,2128 L0,0.987 Z"></path>
        <path id="path-11" d="M0,0.987 L935.001,0.987 L935.001,2128 L0,2128 L0,0.987 Z"></path>
        <path id="path-13" d="M0,0.987 L935.001,0.987 L935.001,2128 L0,2128 L0,0.987 Z"></path>
        <path id="path-15" d="M0,0.987 L935.001,0.987 L935.001,2128 L0,2128 L0,0.987 Z"></path>
        <path id="path-17" d="M0,0.987 L935.001,0.987 L935.001,2128 L0,2128 L0,0.987 Z"></path>
        <path id="path-19" d="M0,0.987 L935.001,0.987 L935.001,2128 L0,2128 L0,0.987 Z"></path>
        <path id="path-21" d="M0,0.987 L935.001,0.987 L935.001,2128 L0,2128 L0,0.987 Z"></path>
        <path id="path-23" d="M0,0.987 L935.001,0.987 L935.001,2128 L0,2128 L0,0.987 Z"></path>
        <path id="path-25" d="M0,0.987 L935.001,0.987 L935.001,2128 L0,2128 L0,0.987 Z"></path>
        <path id="path-27" d="M0,0.987 L935.001,0.987 L935.001,2128 L0,2128 L0,0.987 Z"></path>
        <path id="path-29" d="M0,0.987 L935.001,0.987 L935.001,2128 L0,2128 L0,0.987 Z"></path>
        <path id="path-31" d="M0,0.987 L935.001,0.987 L935.001,2128 L0,2128 L0,0.987 Z"></path>
        <path id="path-33" d="M0,0.987 L935.001,0.987 L935.001,2128 L0,2128 L0,0.987 Z"></path>
        <path id="path-35" d="M0,0.987 L935.001,0.987 L935.001,2128 L0,2128 L0,0.987 Z"></path>
        <path id="path-37" d="M0,0.987 L935.001,0.987 L935.001,2128 L0,2128 L0,0.987 Z"></path>
        <path id="path-39" d="M0,0.987 L935.001,0.987 L935.001,2128 L0,2128 L0,0.987 Z"></path>
        <path id="path-41" d="M0,0.987 L935.001,0.987 L935.001,2128 L0,2128 L0,0.987 Z"></path>
        <path id="path-43" d="M0,0.987 L935.001,0.987 L935.001,2128 L0,2128 L0,0.987 Z"></path>
        <path id="path-45" d="M0,0.987 L935.001,0.987 L935.001,2128 L0,2128 L0,0.987 Z"></path>
        <path id="path-47" d="M0,0.987 L935.001,0.987 L935.001,2128 L0,2128 L0,0.987 Z"></path>
        <path id="path-49" d="M0,0.987 L935.001,0.987 L935.001,2128 L0,2128 L0,0.987 Z"></path>
        <path id="path-51" d="M2.002,0.987 C0.89,0.987 0,1.885 0,2.992 L0,2.992 L0,44.988 L32,44.988 L32,2.992 C32,1.887 31.104,0.987 29.998,0.987 L29.998,0.987 L2.002,0.987 Z"></path>
        <path id="path-53" d="M0,10.988 L32,10.988 L32,0.988 L0,0.988 L0,10.988 Z"></path>
        <path id="path-55" d="M0,2.987 C0,4.091 0.895,4.987 2,4.987 L2,4.987 C3.105,4.987 4,4.091 4,2.987 L4,2.987 C4,1.883 3.105,0.987 2,0.987 L2,0.987 C0.895,0.987 0,1.883 0,2.987 L0,2.987 Z"></path>
        <path id="path-57" d="M0.956,3.371 L7.383,11.031 L11.83,0.773 L0.956,3.371 Z"></path>
        <path id="path-59" d="M0,0.987 L935.001,0.987 L935.001,2128 L0,2128 L0,0.987 Z"></path>
        <path id="path-61" d="M0,0.987 L935.001,0.987 L935.001,2128 L0,2128 L0,0.987 Z"></path>
        <path id="path-63" d="M0,0.987 L935.001,0.987 L935.001,2128 L0,2128 L0,0.987 Z"></path>
        <path id="path-65" d="M0,0.987 L935.001,0.987 L935.001,2128 L0,2128 L0,0.987 Z"></path>
        <path id="path-67" d="M0,0.987 L935.001,0.987 L935.001,2128 L0,2128 L0,0.987 Z"></path>
    </defs>
    <g id="colored" stroke="none" stroke-width="1" fill="none" fill-rule="evenodd" sketch:type="MSPage">
        <g id="Page-1" sketch:type="MSLayerGroup" transform="translate(-137.000000, -1815.000000)">
            <g id="Group-116">
                <mask id="mask-2" sketch:name="Clip 112" fill="white">
                    <use xlink:href="#path-1"></use>
                </mask>
                <g id="Clip-112"></g>
            </g>
            <g id="Group-255">
                <mask id="mask-4" sketch:name="Clip 253" fill="white">
                    <use xlink:href="#path-3"></use>
                </mask>
                <g id="Clip-253"></g>
            </g>
            <g id="Group-321">
                <mask id="mask-6" sketch:name="Clip 298" fill="white">
                    <use xlink:href="#path-5"></use>
                </mask>
                <g id="Clip-298"></g>
            </g>
            <g id="Group-464"></g>
            <g id="Group-556"></g>
            <g id="Group-590"></g>
            <g id="Group-678">
                <mask id="mask-8" sketch:name="Clip 675" fill="white">
                    <use xlink:href="#path-7"></use>
                </mask>
                <g id="Clip-675"></g>
            </g>
            <g id="Group-757"></g>
            <g id="Group-774"></g>
            <g id="Group-799"></g>
            <g id="Group-815"></g>
            <g id="Group-827"></g>
            <g id="Group-850"></g>
            <g id="Group-873"></g>
            <g id="Group-896"></g>
            <g id="Group-919"></g>
            <g id="Group-942"></g>
            <g id="Group-965"></g>
            <g id="Group-988"></g>
            <g id="Group-1010">
                <mask id="mask-10" sketch:name="Clip 1006" fill="white">
                    <use xlink:href="#path-9"></use>
                </mask>
                <g id="Clip-1006"></g>
            </g>
            <g id="Group-1061"></g>
            <g id="Group-1195">
                <mask id="mask-12" sketch:name="Clip 1194" fill="white">
                    <use xlink:href="#path-11"></use>
                </mask>
                <g id="Clip-1194"></g>
            </g>
            <g id="Group-1241">
                <mask id="mask-14" sketch:name="Clip 1237" fill="white">
                    <use xlink:href="#path-13"></use>
                </mask>
                <g id="Clip-1237"></g>
            </g>
            <g id="Group-1262"></g>
            <g id="Group-1330"></g>
            <g id="Group-1358"></g>
            <g id="Group-1369">
                <mask id="mask-16" sketch:name="Clip 1365" fill="white">
                    <use xlink:href="#path-15"></use>
                </mask>
                <g id="Clip-1365"></g>
            </g>
            <g id="Group-1385">
                <mask id="mask-18" sketch:name="Clip 1381" fill="white">
                    <use xlink:href="#path-17"></use>
                </mask>
                <g id="Clip-1381"></g>
            </g>
            <g id="Group-1396"></g>
            <g id="Group-1412">
                <mask id="mask-20" sketch:name="Clip 1408" fill="white">
                    <use xlink:href="#path-19"></use>
                </mask>
                <g id="Clip-1408"></g>
            </g>
            <g id="Group-1430"></g>
            <g id="Group-1459">
                <mask id="mask-22" sketch:name="Clip 1457" fill="white">
                    <use xlink:href="#path-21"></use>
                </mask>
                <g id="Clip-1457"></g>
            </g>
            <g id="Group-1468">
                <mask id="mask-24" sketch:name="Clip 1466" fill="white">
                    <use xlink:href="#path-23"></use>
                </mask>
                <g id="Clip-1466"></g>
            </g>
            <g id="Group-1477">
                <mask id="mask-26" sketch:name="Clip 1475" fill="white">
                    <use xlink:href="#path-25"></use>
                </mask>
                <g id="Clip-1475"></g>
            </g>
            <g id="Group-1486">
                <mask id="mask-28" sketch:name="Clip 1484" fill="white">
                    <use xlink:href="#path-27"></use>
                </mask>
                <g id="Clip-1484"></g>
            </g>
            <g id="Group-1517"></g>
            <g id="Group-1528"></g>
            <g id="Group-1539"></g>
            <g id="Group-1558"></g>
            <g id="Group-1607"></g>
            <g id="Group-1672"></g>
            <g id="Group-1760">
                <mask id="mask-30" sketch:name="Clip 1758" fill="white">
                    <use xlink:href="#path-29"></use>
                </mask>
                <g id="Clip-1758"></g>
            </g>
            <g id="Group-1813"></g>
            <g id="Group-1844">
                <mask id="mask-32" sketch:name="Clip 1841" fill="white">
                    <use xlink:href="#path-31"></use>
                </mask>
                <g id="Clip-1841"></g>
            </g>
            <g id="Group-1858"></g>
            <g id="Group-1956">
                <mask id="mask-34" sketch:name="Clip 1954" fill="white">
                    <use xlink:href="#path-33"></use>
                </mask>
                <g id="Clip-1954"></g>
            </g>
            <g id="Group-1992">
                <mask id="mask-36" sketch:name="Clip 1989" fill="white">
                    <use xlink:href="#path-35"></use>
                </mask>
                <g id="Clip-1989"></g>
            </g>
            <g id="Group-2002">
                <mask id="mask-38" sketch:name="Clip 1999" fill="white">
                    <use xlink:href="#path-37"></use>
                </mask>
                <g id="Clip-1999"></g>
            </g>
            <g id="Group-2046">
                <mask id="mask-40" sketch:name="Clip 2043" fill="white">
                    <use xlink:href="#path-39"></use>
                </mask>
                <g id="Clip-2043"></g>
            </g>
            <g id="Group-2102">
                <mask id="mask-42" sketch:name="Clip 2098" fill="white">
                    <use xlink:href="#path-41"></use>
                </mask>
                <g id="Clip-2098"></g>
            </g>
            <g id="Group-2116">
                <mask id="mask-44" sketch:name="Clip 2109" fill="white">
                    <use xlink:href="#path-43"></use>
                </mask>
                <g id="Clip-2109"></g>
            </g>
            <g id="Group-2202">
                <mask id="mask-46" sketch:name="Clip 2194" fill="white">
                    <use xlink:href="#path-45"></use>
                </mask>
                <g id="Clip-2194"></g>
            </g>
            <g id="Group-2364">
                <mask id="mask-48" sketch:name="Clip 2363" fill="white">
                    <use xlink:href="#path-47"></use>
                </mask>
                <g id="Clip-2363"></g>
            </g>
            <g id="Group-2371"></g>
            <g id="Group-2419">
                <mask id="mask-50" sketch:name="Clip 2418" fill="white">
                    <use xlink:href="#path-49"></use>
                </mask>
                <g id="Clip-2418"></g>
            </g>
            <g id="Group-2469"></g>
            <g id="Group-2523" transform="translate(139.000000, 1821.000000)">
                <mask id="mask-52" sketch:name="Clip 2522" fill="white">
                    <use xlink:href="#path-51"></use>
                </mask>
                <g id="Clip-2522"></g>
                <path d="M-5,-4.013 L37,-4.013 L37,49.987 L-5,49.987 L-5,-4.013 Z" id="Fill-2521" fill="#EBEBEB" sketch:type="MSShapeGroup" mask="url(#mask-52)"></path>
            </g>
            <path d="M140,1864.9872 L170,1864.9872 L170,1823.9922 C170,1823.4382 169.55,1822.9872 168.998,1822.9872 L141.002,1822.9872 C140.45,1822.9872 140,1823.4382 140,1823.9922 L140,1864.9872 Z M172,1866.9872 L138,1866.9872 L138,1823.9922 C138,1822.3352 139.347,1820.9872 141.002,1820.9872 L168.998,1820.9872 C170.653,1820.9872 172,1822.3352 172,1823.9922 L172,1866.9872 Z" id="Fill-2524" fill="#314E55" sketch:type="MSShapeGroup"></path>
            <g id="Group-2528" transform="translate(139.000000, 1855.000000)">
                <mask id="mask-54" sketch:name="Clip 2527" fill="white">
                    <use xlink:href="#path-53"></use>
                </mask>
                <g id="Clip-2527"></g>
                <path d="M-5,-4.013 L37,-4.013 L37,15.987 L-5,15.987 L-5,-4.013 Z" id="Fill-2526" fill="#D8D8D8" sketch:type="MSShapeGroup" mask="url(#mask-54)"></path>
            </g>
            <path d="M140,1864.987 L170,1864.987 L170,1856.987 L140,1856.987 L140,1864.987 Z M172,1866.987 L138,1866.987 L138,1854.987 L172,1854.987 L172,1866.987 Z" id="Fill-2529" fill="#314E55" sketch:type="MSShapeGroup"></path>
            <g id="Group-2533" transform="translate(153.000000, 1858.000000)">
                <mask id="mask-56" sketch:name="Clip 2532" fill="white">
                    <use xlink:href="#path-55"></use>
                </mask>
                <g id="Clip-2532"></g>
                <path d="M-5,-4.013 L9,-4.013 L9,9.987 L-5,9.987 L-5,-4.013 Z" id="Fill-2531" fill="#E65F58" sketch:type="MSShapeGroup" mask="url(#mask-56)"></path>
            </g>
            <g id="Group-2538" transform="translate(146.000000, 1829.000000)" fill="#314E55" sketch:type="MSShapeGroup">
                <path d="M9,30.9872 C8.449,30.9872 8,31.4352 8,31.9872 C8,32.5392 8.449,32.9872 9,32.9872 C9.551,32.9872 10,32.5392 10,31.9872 C10,31.4352 9.551,30.9872 9,30.9872 M9,34.9872 C7.346,34.9872 6,33.6412 6,31.9872 C6,30.3332 7.346,28.9872 9,28.9872 C10.654,28.9872 12,30.3332 12,31.9872 C12,33.6412 10.654,34.9872 9,34.9872" id="Fill-2534"></path>
                <path d="M2.0444,21.4383 L0.6354,20.0203 L12.6334,8.1013 L15.0374,14.1963 L29.1694,0.8683 L31.0674,6.9843 L38.6484,0.7073 L39.9234,2.2483 L30.0434,10.4293 L28.2104,4.5223 L14.2614,17.6783 L11.8874,11.6623 L2.0444,21.4383 Z" id="Fill-2536"></path>
            </g>
            <g id="Group-2541" transform="translate(181.000000, 1823.000000)">
                <mask id="mask-58" sketch:name="Clip 2540" fill="white">
                    <use xlink:href="#path-57"></use>
                </mask>
                <g id="Clip-2540"></g>
                <path d="M9.2326,-10.1011 L22.0886,5.2199 L6.7676,18.0759 L-6.0884,2.7549 L9.2326,-10.1011 Z" id="Fill-2539" fill="#5ECC66" sketch:type="MSShapeGroup" mask="url(#mask-58)"></path>
            </g>
            <g id="Group-2573">
                <path d="M183.7622,1826.9676 L188.1102,1832.1496 L191.1172,1825.2106 L183.7622,1826.9676 Z M188.3842,1835.0306 C188.0912,1835.0306 187.8092,1834.9026 187.6172,1834.6736 L181.1902,1827.0136 C180.9672,1826.7476 180.8982,1826.3866 181.0062,1826.0576 C181.1152,1825.7286 181.3872,1825.4786 181.7232,1825.3986 L192.5972,1822.8006 C192.9642,1822.7106 193.3522,1822.8396 193.5962,1823.1306 C193.8392,1823.4206 193.8982,1823.8226 193.7472,1824.1706 L189.3012,1834.4286 C189.1632,1834.7466 188.8702,1834.9706 188.5282,1835.0206 C188.4792,1835.0276 188.4312,1835.0306 188.3842,1835.0306 L188.3842,1835.0306 Z" id="Fill-2542" fill="#314E55" sketch:type="MSShapeGroup"></path>
                <mask id="mask-60" sketch:name="Clip 2545" fill="white">
                    <use xlink:href="#path-59"></use>
                </mask>
                <g id="Clip-2545"></g>
            </g>
            <g id="Group-2581">
                <mask id="mask-62" sketch:name="Clip 2580" fill="white">
                    <use xlink:href="#path-61"></use>
                </mask>
                <g id="Clip-2580"></g>
            </g>
            <g id="Group-2593"></g>
            <g id="Group-2702">
                <mask id="mask-64" sketch:name="Clip 2698" fill="white">
                    <use xlink:href="#path-63"></use>
                </mask>
                <g id="Clip-2698"></g>
            </g>
            <g id="Group-2912">
                <mask id="mask-66" sketch:name="Clip 2908" fill="white">
                    <use xlink:href="#path-65"></use>
                </mask>
                <g id="Clip-2908"></g>
            </g>
            <g id="Group-3044">
                <mask id="mask-68" sketch:name="Clip 3039" fill="white">
                    <use xlink:href="#path-67"></use>
                </mask>
                <g id="Clip-3039"></g>
            </g>
        </g>
        <g id="Free_sliced" sketch:type="MSLayerGroup" transform="translate(-120.000000, -1800.000000)"></g>
    </g>
</svg>